<?xml version="1.0" standalone="no"?>
<!DOCTYPE svg PUBLIC "-//W3C//DTD SVG 20010904//EN"
 "http://www.w3.org/TR/2001/REC-SVG-20010904/DTD/svg10.dtd">
<svg version="1.0" xmlns="http://www.w3.org/2000/svg"
 width="483.000000pt" height="337.000000pt" viewBox="0 0 483.000000 337.000000"
 preserveAspectRatio="xMidYMid meet">

<g transform="translate(0.000000,337.000000) scale(0.100000,-0.100000)"
fill="#000000" stroke="none">
<path d="M1760 3324 c-578 -16 -1024 -50 -1190 -91 -106 -26 -194 -76 -275
-157 -141 -141 -182 -279 -227 -771 -17 -186 -17 -1050 0 -1230 37 -381 75
-563 142 -668 87 -137 227 -236 380 -268 141 -29 374 -51 755 -71 334 -17
1794 -17 2105 0 740 41 871 71 1035 236 84 85 125 161 160 298 97 385 117
1349 40 1928 -42 314 -84 428 -205 550 -156 158 -314 193 -1025 231 -192 10
-1456 20 -1695 13z m418 -1076 c213 -123 345 -199 772 -446 96 -55 176 -105
178 -110 2 -8 -146 -97 -788 -467 -96 -56 -230 -134 -297 -173 l-123 -71 0
705 c0 636 2 706 16 700 8 -3 117 -65 242 -138z"/>
</g>
</svg>
